<mxfile host="app.diagrams.net" modified="2021-06-04T09:48:47.741Z" agent="5.0 (X11; Linux x86_64) AppleWebKit/537.36 (KHTML, like Gecko) Chrome/73.0.3683.103 Safari/537.36" etag="b1xXH6QuALRbV9w_Tqtk" version="14.7.6" type="github">
  <diagram id="E6iVxmYUJfBTqlVdYLEE" name="Page-1">
    <mxGraphModel dx="1357" dy="728" grid="1" gridSize="10" guides="1" tooltips="1" connect="1" arrows="1" fold="1" page="1" pageScale="1" pageWidth="827" pageHeight="1169" math="0" shadow="0">
      <root>
        <mxCell id="0" />
        <mxCell id="1" parent="0" />
        <mxCell id="tgxKYae7N9HhB_euUe_l-14" value="Vertical Container" style="swimlane;" vertex="1" parent="1">
          <mxGeometry x="400" y="260" width="200" height="200" as="geometry" />
        </mxCell>
        <mxCell id="tgxKYae7N9HhB_euUe_l-15" value="" style="rounded=0;whiteSpace=wrap;html=1;" vertex="1" parent="tgxKYae7N9HhB_euUe_l-14">
          <mxGeometry x="14" y="30" width="120" height="60" as="geometry" />
        </mxCell>
      </root>
    </mxGraphModel>
  </diagram>
</mxfile>
